<svg version="1.1" id="Layer_1" xmlns="http://www.w3.org/2000/svg" xmlns:xlink="http://www.w3.org/1999/xlink" x="0px" y="0px"
	 width="100%" viewBox="0 0 504 480" enable-background="new 0 0 504 480" xml:space="preserve">
<path fill="#000000" opacity="1.000000" stroke="none" 
	d="
M1.000000,451.000000 
	C1.000000,444.978851 1.000000,438.957703 1.454814,432.468628 
	C2.908345,432.000519 3.924112,431.880798 4.902890,432.020386 
	C9.747206,432.711334 11.461378,430.644379 11.073424,425.849609 
	C10.725569,421.550385 11.069066,417.199036 10.992871,412.872650 
	C10.944539,410.128418 12.143702,408.938507 14.881535,408.994019 
	C18.708246,409.071594 22.544632,408.859131 26.364368,409.037994 
	C29.801336,409.198944 31.057404,407.864716 31.075779,404.395538 
	C31.095310,400.707581 29.367815,399.840576 26.152592,399.968628 
	C22.496603,400.114197 18.826132,400.087891 15.170222,399.936554 
	C13.939480,399.885620 11.730483,399.326538 11.678870,398.824036 
	C11.327316,395.401062 11.045903,391.859741 11.662380,388.526886 
	C11.815882,387.697021 15.332172,387.140350 17.325272,387.066772 
	C22.693394,386.868683 28.073641,386.999054 33.489170,386.999054 
	C32.759583,377.003357 32.759583,377.002838 23.970680,377.001404 
	C16.313787,377.000183 8.656894,377.000397 1.000000,377.000000 
	C1.000000,251.780014 1.000000,126.560028 1.000000,1.000000 
	C36.686840,1.000000 72.374763,1.000000 108.844086,1.275538 
	C108.354996,2.566531 107.138893,3.660639 105.804428,4.583609 
	C100.482269,8.264629 99.425774,11.603417 102.627884,17.013622 
	C104.194611,19.660736 106.566277,21.852026 108.683777,24.148031 
	C112.394005,28.171015 113.918312,32.385376 112.162819,38.054359 
	C108.349785,50.367710 100.205070,60.124603 93.632248,70.790459 
	C85.387794,84.168884 77.152176,97.549652 72.056145,112.494217 
	C66.141899,129.838272 62.293278,147.609726 65.086784,166.052704 
	C66.695984,176.676758 68.030312,187.573181 71.537460,197.632614 
	C79.704727,221.058533 91.656746,242.727142 106.353600,262.724548 
	C114.991508,274.477814 124.122360,285.910736 133.665359,296.939270 
	C138.466827,302.488129 144.489975,307.066132 150.372070,311.542603 
	C152.203735,312.936554 156.223480,313.739716 157.721848,312.674866 
	C159.374924,311.500122 160.096939,307.758575 159.773407,305.328308 
	C159.155563,300.687500 158.068588,295.938507 156.196671,291.663361 
	C144.925797,265.922638 133.479202,240.257355 121.888000,214.658936 
	C113.023056,195.081238 106.229385,175.284607 108.847038,153.140930 
	C110.651367,137.877426 115.463951,123.844215 122.943939,110.659073 
	C130.841263,96.738289 139.416046,83.199791 147.224991,69.231613 
	C152.544220,59.716911 155.339172,49.131424 155.856461,38.315266 
	C156.609604,22.567789 150.344101,13.566754 136.439606,5.101523 
	C134.509476,3.926431 132.807556,2.376442 131.000000,1.000001 
	C255.593918,1.000000 380.187836,1.000000 505.000000,1.000000 
	C505.000000,126.020813 505.000000,251.041748 504.545197,376.532196 
	C503.257416,377.001556 502.424469,376.998138 501.591492,377.001770 
	C495.021454,377.030273 495.011597,377.030701 495.001984,383.656281 
	C494.990845,391.319641 494.999298,398.982971 494.999237,406.646332 
	C494.999237,408.947449 494.999237,411.248535 494.999237,413.549652 
	C489.109924,406.407410 484.291718,399.235260 479.426666,392.095032 
	C476.523163,387.833649 473.995941,383.174377 470.413055,379.576874 
	C468.611572,377.767975 464.854401,377.725494 461.924286,377.400421 
	C461.436310,377.346283 460.104462,379.935486 460.092712,381.311188 
	C459.960083,396.803284 460.082245,412.297577 459.958374,427.789856 
	C459.927490,431.648895 462.001526,432.028534 465.039886,432.049530 
	C468.159027,432.071136 470.109924,431.494659 470.043854,427.709137 
	C469.884003,418.549286 469.981293,409.384644 470.017456,400.222076 
	C470.022888,398.849823 470.257660,397.478455 470.502777,394.865845 
	C477.689972,405.408112 484.520477,414.630554 490.438293,424.405518 
	C494.002106,430.292084 498.201782,433.178833 505.000000,432.000000 
	C505.000000,438.687653 505.000000,445.375275 504.635590,452.479065 
	C502.931427,452.244995 501.631561,451.489899 500.244934,450.963013 
	C494.840424,448.909424 489.386047,450.423157 487.496033,454.428223 
	C485.457977,458.747101 487.435638,463.177002 492.747528,466.377747 
	C494.735565,467.575714 496.808990,468.730804 498.497894,470.281799 
	C499.256226,470.978119 499.678833,472.794647 499.316437,473.745789 
	C498.950012,474.707458 497.480652,475.693176 496.392792,475.824127 
	C495.010040,475.990570 493.299133,475.664368 492.127045,474.922638 
	C488.807739,472.822174 487.381256,474.305573 486.396118,477.146698 
	C487.368134,478.585114 488.184052,479.792572 489.000000,481.000000 
	C485.638702,481.000000 482.277435,481.000000 478.436890,480.580627 
	C478.058624,473.482697 472.938568,476.527557 469.954803,476.098389 
	C467.372864,475.727020 466.009705,475.069916 465.975037,472.238708 
	C465.939606,469.345886 466.907776,467.818176 469.992462,467.992157 
	C471.481842,468.076172 473.088623,468.254059 474.444122,467.799072 
	C475.407043,467.475861 476.397369,466.260742 476.665070,465.254639 
	C476.796967,464.758850 475.433624,463.581116 474.537262,463.178253 
	C473.694885,462.799652 472.576294,463.044678 471.580017,462.997803 
	C469.020264,462.877502 465.905640,463.677734 466.030792,459.359833 
	C466.157623,454.983917 469.434387,456.250702 471.863373,456.014893 
	C472.853363,455.918762 474.008545,456.282867 474.819946,455.886932 
	C475.954224,455.333557 476.837067,454.264709 477.827515,453.416443 
	C476.780090,452.621826 475.795471,451.267242 474.673065,451.141388 
	C471.714478,450.809662 468.676758,451.222504 465.706116,450.950470 
	C461.418915,450.557861 459.745331,452.053009 459.914551,456.546326 
	C460.221130,464.687073 460.000549,472.847687 460.000000,481.000000 
	C457.629425,481.000000 455.258881,481.000000 452.422913,480.581238 
	C452.368835,476.708984 450.457581,475.593811 447.463562,476.036774 
	C441.931152,476.855347 440.535187,474.231995 440.923737,469.204956 
	C441.282043,464.568878 441.220490,459.867157 440.884186,455.227692 
	C440.757599,453.481445 439.518951,450.513519 438.476990,450.371033 
	C434.804260,449.868713 435.022919,453.012329 435.014099,455.515656 
	C434.984192,464.010345 435.001007,472.505219 435.000000,481.000000 
	C432.629425,481.000000 430.258881,481.000000 427.441223,480.581085 
	C427.346375,476.745575 425.485687,475.635284 422.464600,476.024872 
	C417.871826,476.617188 416.702087,474.396729 416.935883,470.209534 
	C417.214020,465.227905 417.018646,460.218506 416.986572,455.221405 
	C416.971436,452.858124 417.048767,449.925171 413.727722,450.375092 
	C412.629944,450.523865 411.173767,453.368317 411.124054,455.017700 
	C410.863098,463.671844 411.000793,472.338013 411.000000,481.000000 
	C407.969391,481.000000 404.938812,481.000000 401.451172,480.580078 
	C401.016754,473.586975 395.976593,476.487457 392.959625,476.091705 
	C390.368530,475.751770 389.010498,475.074188 388.976227,472.241486 
	C388.941223,469.352020 389.902008,467.818024 392.989349,467.992157 
	C394.478546,468.076172 396.085022,468.253967 397.440460,467.799286 
	C398.403015,467.476349 399.394470,466.261688 399.660553,465.256409 
	C399.792145,464.759338 398.422852,463.437500 397.539886,463.197327 
	C396.137360,462.815826 394.571075,462.956879 393.078156,463.004578 
	C390.515869,463.086426 388.457001,462.210541 389.205048,459.397491 
	C389.565765,458.040955 391.433319,456.710205 392.916321,456.133606 
	C394.367218,455.569489 396.284790,456.292114 397.830811,455.857300 
	C398.968506,455.537292 399.837646,454.262482 400.826447,453.413147 
	C399.777924,452.619720 398.788116,451.256836 397.669647,451.141541 
	C394.541260,450.819031 391.347229,451.185150 388.202332,450.958038 
	C384.375183,450.681671 382.823853,452.043671 382.934235,456.048889 
	C383.163361,464.360229 383.001251,472.682312 383.000000,481.000000 
	C380.629425,481.000000 378.258881,481.000000 375.297424,480.683472 
	C372.877838,477.025482 371.243561,473.557159 369.168365,470.376495 
	C366.857422,466.834442 367.069244,463.708832 369.387695,460.295227 
	C371.213745,457.606659 372.637177,454.644623 374.275482,451.740143 
	C366.448242,448.611603 366.571716,456.272919 363.001770,459.496338 
	C361.666565,457.065735 360.889679,454.518372 359.205780,452.936584 
	C357.802094,451.617950 355.334564,451.431793 353.338226,450.744080 
	C353.087402,451.233856 352.836548,451.723633 352.585693,452.213409 
	C354.042816,454.968567 355.180756,457.964111 357.032135,460.422333 
	C359.784882,464.077332 359.412354,467.105499 356.955078,470.764832 
	C354.862793,473.880707 353.619110,477.566406 352.000000,481.000000 
	C347.975464,481.000000 343.950897,481.000000 339.509216,480.649353 
	C340.700714,476.885101 343.141876,473.605438 343.717896,470.025665 
	C344.528442,464.988434 344.151489,459.716309 343.829834,454.572968 
	C343.753906,453.358765 341.873077,452.257385 340.822510,451.104126 
	C339.885925,452.375397 338.250946,453.589569 338.141479,454.928467 
	C337.789612,459.232483 338.058197,463.583588 337.980377,467.914581 
	C337.886353,473.147247 335.769226,475.786560 331.720642,475.918335 
	C327.772064,476.046875 325.330780,473.404083 325.076721,468.247833 
	C324.863708,463.925446 325.251678,459.562897 324.855072,455.265961 
	C324.720093,453.803680 323.005768,452.487213 322.013123,451.104065 
	C321.011932,452.478668 319.194000,453.823517 319.142639,455.232727 
	C318.817871,464.148132 317.952545,473.258179 324.000000,481.000000 
	C320.307098,481.000000 316.614166,481.000000 312.316284,480.689209 
	C309.058899,476.210236 306.406464,472.041992 303.612854,467.651917 
	C308.640381,465.557251 311.048767,462.097260 309.700104,456.965088 
	C308.267822,451.514557 303.902069,450.731415 299.085876,450.994293 
	C298.258942,451.039459 297.420807,451.072693 296.599396,450.992798 
	C293.152435,450.657471 291.895874,452.199005 291.955963,455.623169 
	C292.104492,464.079773 292.001740,472.540771 292.000000,481.000000 
	C287.643097,481.000000 283.286194,481.000000 278.512207,480.645691 
	C283.362274,472.290710 283.413330,471.174927 278.812225,464.613129 
	C283.413513,456.331665 280.192780,451.016876 270.562103,451.000671 
	C269.235779,450.998444 267.900543,451.103516 266.584900,450.985901 
	C263.122650,450.676331 261.897125,452.227631 261.956116,455.635132 
	C262.102356,464.087799 262.001556,472.544769 262.000000,481.000000 
	C252.312439,481.000000 242.624878,481.000000 232.465973,480.580078 
	C232.017731,473.588409 226.978790,476.487061 223.961960,476.091309 
	C221.373230,475.751709 220.010574,475.078400 219.976532,472.244415 
	C219.941879,469.358398 220.896072,467.818451 223.985733,467.992645 
	C225.474686,468.076630 227.080582,468.254242 228.436264,467.800293 
	C229.399780,467.477661 230.393219,466.266022 230.661407,465.261169 
	C230.794006,464.764343 229.433273,463.478241 228.542542,463.194092 
	C227.325409,462.805908 225.911011,462.977234 224.583374,463.007050 
	C222.022491,463.064514 219.935501,462.777008 220.006744,459.361816 
	C220.071991,456.235138 222.006546,455.962280 224.361557,456.002747 
	C225.691559,456.025604 227.140457,456.318634 228.321381,455.893829 
	C229.618774,455.427185 230.669815,454.275635 231.828186,453.422485 
	C230.616653,452.619659 229.469147,451.275757 228.180695,451.123322 
	C225.227722,450.773987 222.193039,451.180115 219.215393,450.958679 
	C215.383804,450.673706 213.841736,452.055786 213.948883,456.053345 
	C214.171631,464.363373 214.006012,472.683838 214.000000,481.000000 
	C210.638718,481.000000 207.277420,481.000000 203.458115,480.531342 
	C202.998840,471.619507 203.119766,463.172913 202.885117,454.736206 
	C202.842224,453.193848 201.351334,451.691711 200.528839,450.170990 
	C199.687241,451.673035 198.158173,453.156708 198.117462,454.680145 
	C197.883224,463.448212 198.001328,472.225708 198.000000,481.000000 
	C194.307098,481.000000 190.614182,481.000000 186.460648,480.531342 
	C185.999939,472.573029 186.141617,465.079102 185.913849,457.596375 
	C185.845123,455.337830 187.652222,451.624268 183.355469,451.475616 
	C182.639511,451.450836 181.297623,455.260681 181.106750,457.376282 
	C180.743134,461.406433 181.001282,465.492706 181.001282,470.621826 
	C179.641434,469.107788 179.032257,468.574280 178.598846,467.923676 
	C175.557083,463.357849 172.775803,458.593262 169.415421,454.278351 
	C168.205154,452.724304 165.630692,452.232666 163.678802,451.256165 
	C163.119522,453.015411 162.114883,454.765137 162.077240,456.535431 
	C161.903946,464.687164 162.000336,472.844604 162.000000,481.000000 
	C156.645065,481.000000 151.290146,481.000000 145.538498,480.669922 
	C150.126678,475.880341 152.572342,470.497742 152.055283,463.632660 
	C151.465439,455.801178 145.180206,450.032196 136.591751,450.005280 
	C128.884262,449.981110 122.692719,455.957916 121.933769,463.390076 
	C121.191330,470.660400 124.263657,476.088348 129.000000,481.000000 
	C124.975456,481.000000 120.950912,481.000000 116.442383,480.581116 
	C116.371262,476.708252 114.460106,475.593689 111.465828,476.036469 
	C105.936516,476.854218 104.534470,474.236633 104.923874,469.206635 
	C105.282784,464.570709 105.220642,459.869019 104.884521,455.229553 
	C104.757973,453.482758 103.520500,450.513489 102.479149,450.371124 
	C98.806473,449.868958 99.025276,453.013000 99.016205,455.515961 
	C98.985420,464.010559 99.001694,472.505310 99.000000,481.000000 
	C96.629440,481.000000 94.258888,481.000000 91.441399,480.581085 
	C91.346863,476.745911 89.486847,475.635345 86.465500,476.024658 
	C81.876129,476.616058 80.699554,474.401184 80.933617,470.211304 
	C81.211899,465.229828 81.016724,460.220551 80.984009,455.223633 
	C80.968544,452.861511 81.048264,449.927185 77.726921,450.375488 
	C76.630135,450.523499 75.174171,453.368927 75.124428,455.018494 
	C74.863457,463.672363 75.000938,472.338287 75.000000,481.000000 
	C72.629440,481.000000 70.258888,481.000000 67.383240,480.632324 
	C63.879341,471.840271 61.023735,463.359711 57.759186,455.039612 
	C57.117176,453.403381 55.027245,451.651428 53.355598,451.353729 
	C52.315186,451.168427 50.208092,453.381287 49.606297,454.919464 
	C46.231518,463.545410 43.169071,472.293579 39.999996,481.000000 
	C36.307091,481.000000 32.614182,481.000000 28.481638,480.611603 
	C30.850174,470.732819 33.658344,461.242462 36.486748,451.683716 
	C32.242210,450.255188 30.267479,451.246094 29.369368,455.117035 
	C28.219330,460.073853 26.555719,464.911499 24.693232,471.224792 
	C22.574007,465.140686 20.937956,460.443756 19.301905,455.746796 
	C17.276314,458.145447 16.439444,460.444183 15.596473,462.740692 
	C14.725801,465.112732 13.849199,467.482574 12.504641,471.129761 
	C10.807651,465.236664 9.315928,460.832001 8.305584,456.319580 
	C7.380616,452.188538 5.273718,450.252777 1.000000,451.000000 
M298.834351,133.052216 
	C298.232086,133.865280 297.125244,134.667358 297.107269,135.493149 
	C296.962280,142.154297 297.054901,148.820129 297.004639,155.484024 
	C296.981934,158.491898 298.802856,158.882004 301.253174,159.030304 
	C310.655640,159.599396 320.043243,160.421295 329.447449,160.953003 
	C340.856628,161.598068 351.556000,164.470566 361.229523,170.661804 
	C375.839203,180.012283 384.338654,193.139069 384.945557,210.694778 
	C385.490692,226.463120 379.793488,239.780624 367.559265,249.875946 
	C350.249969,264.158997 330.821106,267.504730 309.735840,259.806702 
	C305.442200,258.239136 301.600098,255.434937 297.224426,253.021317 
	C297.224426,270.955292 297.224426,288.248047 297.224426,305.365479 
	C317.392914,314.771942 338.274811,316.228943 359.403687,311.619263 
	C382.106842,306.666077 402.009949,296.282471 418.428406,279.253387 
	C434.827484,262.244385 442.265106,241.832184 442.608856,218.811722 
	C442.803772,205.757706 438.437317,193.465805 431.024475,182.613708 
	C419.125214,165.193695 403.249298,152.768295 383.092651,146.171417 
	C379.164612,144.885834 377.412872,143.609543 379.846161,139.274475 
	C388.487854,123.878754 393.391113,107.551758 390.991577,89.649681 
	C389.533203,78.769089 384.510742,69.956810 375.085327,64.124229 
	C368.520599,60.061882 363.334991,63.374554 362.938477,71.153603 
	C362.552460,78.726440 362.188293,86.367058 360.876831,93.812752 
	C357.733124,111.660568 347.903717,124.247406 330.227600,129.814484 
	C320.332214,132.931046 310.080841,133.403717 298.834351,133.052216 
M190.457642,263.072662 
	C195.628723,267.262268 201.898865,269.310730 208.168121,268.725098 
	C217.040100,267.896423 223.084778,262.147278 226.973557,254.191620 
	C232.784821,242.302963 234.266678,229.379150 235.983627,216.520203 
	C237.711060,203.582977 239.312225,190.628952 240.997192,177.685989 
	C243.947464,155.023590 250.127991,133.380890 260.912750,113.104515 
	C268.799164,98.277367 278.953278,85.551895 292.684845,75.664078 
	C307.934052,64.683449 324.899780,58.416271 343.409546,55.984402 
	C348.872772,55.266628 353.219482,52.414040 354.688202,47.259296 
	C356.070282,42.408497 355.160889,37.196342 350.439056,34.065224 
	C346.411346,31.394390 342.212616,28.633980 337.685425,27.128134 
	C323.264862,22.331535 308.604950,23.825672 294.250488,27.431585 
	C263.257965,35.217075 241.949203,55.094807 226.819702,82.505798 
	C216.943741,100.398636 210.173111,119.492882 206.489258,139.435974 
	C203.351334,156.423462 201.935822,173.741150 200.091141,190.948441 
	C199.508438,196.383957 200.334946,201.961472 199.897110,207.424362 
	C199.525864,212.056152 198.261627,216.616364 197.392563,221.208237 
	C196.770126,221.238739 196.147690,221.269257 195.525253,221.299759 
	C193.005081,217.790558 190.456161,214.301590 187.970352,210.768234 
	C181.613998,201.733170 175.511551,192.503830 168.763229,183.772873 
	C167.346436,181.939850 163.478943,181.037964 160.963409,181.373993 
	C159.424057,181.579636 157.856186,184.812210 157.145676,186.964218 
	C156.569702,188.708694 156.917435,190.961914 157.434204,192.829346 
	C160.193146,202.799408 162.753967,212.849197 166.100189,222.626038 
	C171.229340,237.612106 176.636551,252.578323 190.457642,263.072662 
M426.138397,378.067261 
	C414.201782,374.383514 403.321106,375.676666 394.919250,385.715240 
	C389.084015,392.687195 387.624207,400.928955 388.874481,410.006622 
	C390.352509,420.737885 396.179199,427.717834 405.962097,431.314850 
	C415.465576,434.809143 424.831146,433.669464 432.919312,427.452393 
	C448.862762,415.197357 445.877594,384.664978 426.138397,378.067261 
M98.999672,395.500824 
	C99.001640,406.148621 99.005371,416.796387 99.004135,427.444183 
	C99.003868,429.705902 99.029678,432.133759 102.190826,431.918152 
	C109.932755,431.390106 117.955437,431.752808 125.320831,429.752686 
	C134.355743,427.299194 140.250290,420.221863 141.797913,410.859314 
	C143.592209,400.004364 141.555801,390.026611 131.918869,382.942810 
	C122.761650,376.211578 112.191750,376.856567 101.736786,377.252411 
	C100.782516,377.288544 99.241203,379.659973 99.137329,381.034943 
	C98.799866,385.501801 99.004028,390.009583 98.999672,395.500824 
M241.108688,389.417267 
	C239.948517,383.065399 236.399658,379.033813 230.197403,378.168304 
	C224.635406,377.392120 218.966324,377.399353 213.349060,376.996979 
	C210.111496,376.765076 208.949371,378.213745 208.967712,381.400635 
	C209.055847,396.706421 209.066269,412.013458 208.956665,427.319000 
	C208.932480,430.694489 210.035019,432.068207 213.553818,432.078247 
	C217.185898,432.088623 218.119156,430.475555 218.037918,427.209259 
	C217.891068,421.304504 217.996368,415.393494 217.996368,409.485077 
	C222.966125,415.034943 226.930725,420.885742 230.859009,426.760834 
	C234.706482,432.515076 237.139160,433.327576 244.510178,430.864075 
	C239.530228,423.165039 234.622406,415.577484 229.696854,407.962524 
	C239.574326,403.439423 242.781158,398.427063 241.108688,389.417267 
M189.632248,431.348999 
	C192.618271,425.209015 191.436066,423.048798 185.053360,423.003998 
	C182.724777,422.987671 180.395996,423.000885 178.067307,423.000671 
	C168.504105,422.999878 168.619522,423.003754 168.943558,413.340393 
	C169.051620,410.117554 170.216888,408.840363 173.403885,408.974091 
	C176.890610,409.120392 180.394882,408.868195 183.879684,409.035583 
	C187.284058,409.199097 189.092239,408.345398 189.091904,404.384827 
	C189.091537,400.190186 186.808380,399.885498 183.648315,399.975769 
	C179.992233,400.080231 176.287857,400.301514 172.693176,399.815582 
	C171.342438,399.632996 169.781799,397.807892 169.156204,396.367126 
	C168.547592,394.965515 169.104996,393.090942 168.987381,391.435638 
	C168.762756,388.274536 170.047668,386.859985 173.314377,386.971741 
	C177.633850,387.119476 181.967499,386.870453 186.285507,387.037964 
	C189.631882,387.167755 191.170135,386.040314 191.056427,382.479034 
	C190.953232,379.246399 190.443527,376.933899 186.458115,376.987183 
	C178.641861,377.091644 170.822922,377.053802 163.005707,376.994110 
	C160.356750,376.973877 158.988632,377.948608 158.995483,380.764862 
	C159.033875,396.566437 159.035782,412.368286 158.988754,428.169861 
	C158.980515,430.937378 160.197128,432.049805 162.908005,432.005188 
	C171.549408,431.862976 180.192215,431.805145 189.632248,431.348999 
M48.999348,415.497803 
	C49.003716,419.662201 49.067612,423.827728 48.990944,427.990631 
	C48.942120,430.641663 49.911198,432.026489 52.747860,432.003967 
	C60.576347,431.941833 68.407173,431.892303 76.234047,432.021393 
	C80.517654,432.092010 80.394630,428.815796 80.792542,426.206451 
	C81.293854,422.919006 78.703575,423.027802 76.489548,423.010651 
	C73.657913,422.988708 70.826004,423.000610 67.994217,423.000183 
	C58.677525,422.998810 58.844059,423.000641 58.922054,413.742706 
	C58.954220,409.924286 60.469425,408.757538 64.014389,408.961578 
	C67.334587,409.152679 70.678391,408.897217 74.005470,409.015747 
	C77.099701,409.126038 78.044037,407.624084 78.036530,404.747375 
	C78.029007,401.869324 77.559845,399.814728 73.999901,399.982727 
	C71.008415,400.123871 67.975258,399.735413 65.012848,400.059509 
	C60.026215,400.605011 58.331753,398.403778 58.995956,393.752960 
	C59.019268,393.589722 59.019203,393.417328 58.995953,393.254089 
	C58.334743,388.611755 60.007877,386.442108 65.006256,386.931213 
	C68.636078,387.286377 72.328835,386.989716 75.993469,387.000732 
	C78.590446,387.008514 81.426010,387.126678 80.869125,383.283875 
	C80.436073,380.295654 80.559189,376.793396 75.728386,376.948730 
	C68.573082,377.178833 61.396824,377.208038 54.245007,376.927338 
	C49.937031,376.758240 48.860600,378.547241 48.933628,382.517059 
	C49.129665,393.174316 48.999790,403.837585 48.999348,415.497803 
M261.999573,418.502930 
	C260.521729,422.772308 259.043884,427.041687 257.514160,431.460968 
	C266.880951,432.687988 266.863770,432.682068 269.497162,425.042908 
	C270.146118,423.160339 270.572144,421.019440 271.780853,419.561096 
	C273.054535,418.024353 275.081451,416.272461 276.884460,416.148834 
	C289.481140,415.285004 289.489868,415.412415 293.535889,427.122345 
	C295.384979,432.473938 297.993286,433.388672 304.562012,430.781891 
	C304.107422,429.247345 303.721558,427.649384 303.165344,426.113098 
	C297.851807,411.437408 292.480743,396.782440 287.201477,382.094513 
	C286.234192,379.403412 285.778992,376.900238 281.808716,376.870972 
	C277.760315,376.841125 276.252563,378.891357 275.095093,382.133057 
	C270.849792,394.022797 266.518860,405.881989 261.999573,418.502930 
M332.999878,403.501526 
	C333.000732,399.342957 333.203796,395.171722 332.944763,391.029388 
	C332.692688,386.998383 334.413452,385.637970 338.218079,385.966278 
	C340.476349,386.161194 342.765167,386.001984 345.864166,386.001984 
	C343.941803,382.440674 347.519318,377.223083 341.193695,377.067871 
	C332.715363,376.859894 324.225800,376.917999 315.747101,377.118805 
	C314.420624,377.150208 312.557159,378.223175 311.918640,379.362061 
	C309.532990,383.617157 311.191071,385.900848 316.402008,385.998871 
	C322.975983,386.122559 322.989075,386.122559 322.995514,392.637207 
	C323.006836,404.114868 323.096558,415.593842 322.945007,427.069489 
	C322.897369,430.677765 324.061554,432.080200 327.805206,432.096375 
	C331.628479,432.112854 333.192322,430.957794 333.065308,426.954926 
	C332.828064,419.477051 332.998840,411.986237 332.999878,403.501526 
M361.000000,418.488922 
	C361.000854,421.321960 361.150696,424.164825 360.964905,426.985565 
	C360.731598,430.528229 361.907745,432.102753 365.740967,432.095612 
	C369.503784,432.088562 371.118530,431.072998 371.069122,427.004028 
	C370.886993,412.007812 370.924286,397.007446 371.050293,382.010071 
	C371.080017,378.472168 370.087463,376.898041 366.256500,376.904633 
	C362.491455,376.911072 360.859985,377.929138 360.930054,381.998260 
	C361.133698,393.826843 361.000885,405.661194 361.000000,418.488922 
M168.854034,369.108826 
	C169.697128,370.065826 170.436630,371.715698 171.401230,371.859924 
	C175.582184,372.485077 179.494705,368.144043 181.038864,361.597778 
	C172.273636,359.881409 171.818970,360.138397 168.854034,369.108826 
M61.514851,371.979340 
	C66.053398,371.209991 69.533081,367.248901 70.836014,361.039764 
	C68.456245,361.039764 66.147812,360.870972 63.872868,361.075195 
	C59.257030,361.489502 59.897552,365.780334 58.828430,368.632172 
	C58.543030,369.393494 60.054562,370.828430 61.514851,371.979340 
M251.767685,468.763611 
	C248.727661,468.275543 245.693924,467.664307 242.636993,467.508667 
	C242.361206,467.494629 241.935776,470.419800 241.579834,471.980011 
	C244.128983,472.296906 246.703583,472.950592 249.214401,472.760773 
	C250.184341,472.687408 251.009613,470.700470 251.767685,468.763611 
z"/>
<path fill="#E51B24" opacity="1.000000" stroke="none" 
	d="
M130.531433,1.000001 
	C132.807556,2.376442 134.509476,3.926431 136.439606,5.101523 
	C150.344101,13.566754 156.609604,22.567789 155.856461,38.315266 
	C155.339172,49.131424 152.544220,59.716911 147.224991,69.231613 
	C139.416046,83.199791 130.841263,96.738289 122.943939,110.659073 
	C115.463951,123.844215 110.651367,137.877426 108.847038,153.140930 
	C106.229385,175.284607 113.023056,195.081238 121.888000,214.658936 
	C133.479202,240.257355 144.925797,265.922638 156.196671,291.663361 
	C158.068588,295.938507 159.155563,300.687500 159.773407,305.328308 
	C160.096939,307.758575 159.374924,311.500122 157.721848,312.674866 
	C156.223480,313.739716 152.203735,312.936554 150.372070,311.542603 
	C144.489975,307.066132 138.466827,302.488129 133.665359,296.939270 
	C124.122360,285.910736 114.991508,274.477814 106.353600,262.724548 
	C91.656746,242.727142 79.704727,221.058533 71.537460,197.632614 
	C68.030312,187.573181 66.695984,176.676758 65.086784,166.052704 
	C62.293278,147.609726 66.141899,129.838272 72.056145,112.494217 
	C77.152176,97.549652 85.387794,84.168884 93.632248,70.790459 
	C100.205070,60.124603 108.349785,50.367710 112.162819,38.054359 
	C113.918312,32.385376 112.394005,28.171015 108.683777,24.148031 
	C106.566277,21.852026 104.194611,19.660736 102.627884,17.013622 
	C99.425774,11.603417 100.482269,8.264629 105.804428,4.583609 
	C107.138893,3.660639 108.354996,2.566531 109.312744,1.275538 
	C116.020950,1.000000 123.041901,1.000000 130.531433,1.000001 
z"/>
<path fill="#231F20" opacity="1.000000" stroke="none" 
	d="
M505.000000,431.531342 
	C498.201782,433.178833 494.002106,430.292084 490.438293,424.405518 
	C484.520477,414.630554 477.689972,405.408112 470.502777,394.865845 
	C470.257660,397.478455 470.022888,398.849823 470.017456,400.222076 
	C469.981293,409.384644 469.884003,418.549286 470.043854,427.709137 
	C470.109924,431.494659 468.159027,432.071136 465.039886,432.049530 
	C462.001526,432.028534 459.927490,431.648895 459.958374,427.789856 
	C460.082245,412.297577 459.960083,396.803284 460.092712,381.311188 
	C460.104462,379.935486 461.436310,377.346283 461.924286,377.400421 
	C464.854401,377.725494 468.611572,377.767975 470.413055,379.576874 
	C473.995941,383.174377 476.523163,387.833649 479.426666,392.095032 
	C484.291718,399.235260 489.109924,406.407410 494.999237,413.549652 
	C494.999237,411.248535 494.999237,408.947449 494.999237,406.646332 
	C494.999298,398.982971 494.990845,391.319641 495.001984,383.656281 
	C495.011597,377.030701 495.021454,377.030273 501.591492,377.001770 
	C502.424469,376.998138 503.257416,377.001556 504.545197,377.000854 
	C505.000000,395.020905 505.000000,413.041779 505.000000,431.531342 
z"/>
<path fill="#231F20" opacity="1.000000" stroke="none" 
	d="
M1.000000,377.468658 
	C8.656894,377.000397 16.313787,377.000183 23.970680,377.001404 
	C32.759583,377.002838 32.759583,377.003357 33.489170,386.999054 
	C28.073641,386.999054 22.693394,386.868683 17.325272,387.066772 
	C15.332172,387.140350 11.815882,387.697021 11.662380,388.526886 
	C11.045903,391.859741 11.327316,395.401062 11.678870,398.824036 
	C11.730483,399.326538 13.939480,399.885620 15.170222,399.936554 
	C18.826132,400.087891 22.496603,400.114197 26.152592,399.968628 
	C29.367815,399.840576 31.095310,400.707581 31.075779,404.395538 
	C31.057404,407.864716 29.801336,409.198944 26.364368,409.037994 
	C22.544632,408.859131 18.708246,409.071594 14.881535,408.994019 
	C12.143702,408.938507 10.944539,410.128418 10.992871,412.872650 
	C11.069066,417.199036 10.725569,421.550385 11.073424,425.849609 
	C11.461378,430.644379 9.747206,432.711334 4.902890,432.020386 
	C3.924112,431.880798 2.908345,432.000519 1.454814,432.000366 
	C1.000000,413.979095 1.000000,395.958221 1.000000,377.468658 
z"/>
<path fill="#231F20" opacity="1.000000" stroke="none" 
	d="
M1.000000,451.437500 
	C5.273718,450.252777 7.380616,452.188538 8.305584,456.319580 
	C9.315928,460.832001 10.807651,465.236664 12.504641,471.129761 
	C13.849199,467.482574 14.725801,465.112732 15.596473,462.740692 
	C16.439444,460.444183 17.276314,458.145447 19.301905,455.746796 
	C20.937956,460.443756 22.574007,465.140686 24.693232,471.224792 
	C26.555719,464.911499 28.219330,460.073853 29.369368,455.117035 
	C30.267479,451.246094 32.242210,450.255188 36.486748,451.683716 
	C33.658344,461.242462 30.850174,470.732819 28.021002,480.611603 
	C26.285643,481.000000 24.571283,481.000000 22.407429,480.611267 
	C21.007759,476.863159 20.057589,473.503784 19.107418,470.144409 
	C18.783545,470.175995 18.459671,470.207611 18.135798,470.239197 
	C17.090530,473.826141 16.045265,477.413055 15.000000,481.000000 
	C13.285642,481.000000 11.571282,481.000000 9.406523,480.605530 
	C7.274104,474.204498 5.699381,468.164337 3.837023,462.214203 
	C3.352197,460.665222 1.970022,459.397125 1.000000,458.000000 
	C1.000000,455.958344 1.000000,453.916656 1.000000,451.437500 
z"/>
<path fill="#231F20" opacity="1.000000" stroke="none" 
	d="
M129.466858,481.000000 
	C124.263657,476.088348 121.191330,470.660400 121.933769,463.390076 
	C122.692719,455.957916 128.884262,449.981110 136.591751,450.005280 
	C145.180206,450.032196 151.465439,455.801178 152.055283,463.632660 
	C152.572342,470.497742 150.126678,475.880341 145.070892,480.669922 
	C139.977905,481.000000 134.955811,481.000000 129.466858,481.000000 
M128.199753,468.784821 
	C128.374817,469.249481 128.499985,469.740936 128.732651,470.174713 
	C131.329758,475.016846 135.431992,477.024078 139.690399,475.556427 
	C144.402176,473.932465 147.011673,468.578094 145.889252,462.837097 
	C144.984207,458.207947 141.646515,455.815125 136.373856,456.015503 
	C130.077271,456.254761 127.892227,459.404327 128.199753,468.784821 
z"/>
<path fill="#231F20" opacity="1.000000" stroke="none" 
	d="
M262.466858,481.000000 
	C262.001556,472.544769 262.102356,464.087799 261.956116,455.635132 
	C261.897125,452.227631 263.122650,450.676331 266.584900,450.985901 
	C267.900543,451.103516 269.235779,450.998444 270.562103,451.000671 
	C280.192780,451.016876 283.413513,456.331665 278.812225,464.613129 
	C283.413330,471.174927 283.362274,472.290710 278.047546,480.645691 
	C272.977905,481.000000 267.955811,481.000000 262.466858,481.000000 
M268.171875,474.043823 
	C270.047974,477.394135 272.715424,476.178558 274.831573,474.731964 
	C275.794098,474.073975 276.502716,471.037964 276.086945,470.724426 
	C274.457520,469.495728 272.303589,468.296051 270.407654,468.387970 
	C269.548615,468.429626 268.837341,471.518311 268.171875,474.043823 
M274.024994,461.803619 
	C274.167847,460.110535 274.310699,458.417419 274.453552,456.724335 
	C272.721436,456.627533 270.528564,455.859131 269.395966,456.636200 
	C268.403900,457.316772 268.602631,459.733154 268.275330,461.382751 
	C269.972992,461.654694 271.670685,461.926605 274.024994,461.803619 
z"/>
<path fill="#231F20" opacity="1.000000" stroke="none" 
	d="
M162.416656,481.000000 
	C162.000336,472.844604 161.903946,464.687164 162.077240,456.535431 
	C162.114883,454.765137 163.119522,453.015411 163.678802,451.256165 
	C165.630692,452.232666 168.205154,452.724304 169.415421,454.278351 
	C172.775803,458.593262 175.557083,463.357849 178.598846,467.923676 
	C179.032257,468.574280 179.641434,469.107788 181.001282,470.621826 
	C181.001282,465.492706 180.743134,461.406433 181.106750,457.376282 
	C181.297623,455.260681 182.639511,451.450836 183.355469,451.475616 
	C187.652222,451.624268 185.845123,455.337830 185.913849,457.596375 
	C186.141617,465.079102 185.999939,472.573029 186.000000,480.531342 
	C184.285645,481.000000 182.571289,481.000000 180.389511,480.646118 
	C176.047089,474.166077 172.172104,468.039886 168.297104,461.913696 
	C167.864731,462.149292 167.432373,462.384888 167.000000,462.620453 
	C167.000000,468.746979 167.000000,474.873474 167.000000,481.000000 
	C165.611115,481.000000 164.222214,481.000000 162.416656,481.000000 
z"/>
<path fill="#231F20" opacity="1.000000" stroke="none" 
	d="
M324.466125,481.000000 
	C317.952545,473.258179 318.817871,464.148132 319.142639,455.232727 
	C319.194000,453.823517 321.011932,452.478668 322.013123,451.104065 
	C323.005768,452.487213 324.720093,453.803680 324.855072,455.265961 
	C325.251678,459.562897 324.863708,463.925446 325.076721,468.247833 
	C325.330780,473.404083 327.772064,476.046875 331.720642,475.918335 
	C335.769226,475.786560 337.886353,473.147247 337.980377,467.914581 
	C338.058197,463.583588 337.789612,459.232483 338.141479,454.928467 
	C338.250946,453.589569 339.885925,452.375397 340.822510,451.104126 
	C341.873077,452.257385 343.753906,453.358765 343.829834,454.572968 
	C344.151489,459.716309 344.528442,464.988434 343.717896,470.025665 
	C343.141876,473.605438 340.700714,476.885101 339.046021,480.649353 
	C334.310760,481.000000 329.621490,481.000000 324.466125,481.000000 
z"/>
<path fill="#231F20" opacity="1.000000" stroke="none" 
	d="
M292.416656,481.000000 
	C292.001740,472.540771 292.104492,464.079773 291.955963,455.623169 
	C291.895874,452.199005 293.152435,450.657471 296.599396,450.992798 
	C297.420807,451.072693 298.258942,451.039459 299.085876,450.994293 
	C303.902069,450.731415 308.267822,451.514557 309.700104,456.965088 
	C311.048767,462.097260 308.640381,465.557251 303.612854,467.651917 
	C306.406464,472.041992 309.058899,476.210236 311.855652,480.689209 
	C309.958344,481.000000 307.916656,481.000000 305.373749,480.656250 
	C302.654694,476.823914 300.436920,473.335327 298.219147,469.846771 
	C297.812744,469.994934 297.406372,470.143097 297.000000,470.291260 
	C297.000000,473.860840 297.000000,477.430420 297.000000,481.000000 
	C295.611115,481.000000 294.222198,481.000000 292.416656,481.000000 
M302.527222,456.490875 
	C300.740051,456.989807 298.699066,457.143066 297.299927,458.170441 
	C296.793091,458.542603 297.407623,461.928131 298.244659,462.304077 
	C299.578979,462.903412 302.146667,462.717926 303.035980,461.774200 
	C303.862244,460.897430 303.175537,458.594879 302.527222,456.490875 
z"/>
<path fill="#231F20" opacity="1.000000" stroke="none" 
	d="
M40.437496,481.000000 
	C43.169071,472.293579 46.231518,463.545410 49.606297,454.919464 
	C50.208092,453.381287 52.315186,451.168427 53.355598,451.353729 
	C55.027245,451.651428 57.117176,453.403381 57.759186,455.039612 
	C61.023735,463.359711 63.879341,471.840271 66.939079,480.632324 
	C65.285645,481.000000 63.571285,481.000000 61.367325,480.632812 
	C59.081631,477.533813 57.854008,473.329193 55.373085,472.371643 
	C49.921474,470.267426 47.644733,473.060394 47.000000,481.000000 
	C44.958332,481.000000 42.916668,481.000000 40.437496,481.000000 
M54.869183,462.028381 
	C54.514767,461.142395 54.160351,460.256409 53.555267,458.743744 
	C52.599392,461.584229 51.862843,463.772919 51.067131,466.137451 
	C55.379826,467.639709 56.356766,466.321350 54.869183,462.028381 
z"/>
<path fill="#231F20" opacity="1.000000" stroke="none" 
	d="
M352.437500,481.000000 
	C353.619110,477.566406 354.862793,473.880707 356.955078,470.764832 
	C359.412354,467.105499 359.784882,464.077332 357.032135,460.422333 
	C355.180756,457.964111 354.042816,454.968567 352.585693,452.213409 
	C352.836548,451.723633 353.087402,451.233856 353.338226,450.744080 
	C355.334564,451.431793 357.802094,451.617950 359.205780,452.936584 
	C360.889679,454.518372 361.666565,457.065735 363.001770,459.496338 
	C366.571716,456.272919 366.448242,448.611603 374.275482,451.740143 
	C372.637177,454.644623 371.213745,457.606659 369.387695,460.295227 
	C367.069244,463.708832 366.857422,466.834442 369.168365,470.376495 
	C371.243561,473.557159 372.877838,477.025482 374.853271,480.683472 
	C372.958344,481.000000 370.916656,481.000000 368.378296,480.645996 
	C366.530273,477.429626 365.178986,474.567291 363.827698,471.704956 
	C363.350891,471.701996 362.874115,471.699066 362.397339,471.696136 
	C361.264893,474.797424 360.132446,477.898712 359.000000,481.000000 
	C356.958344,481.000000 354.916656,481.000000 352.437500,481.000000 
z"/>
<path fill="#231F20" opacity="1.000000" stroke="none" 
	d="
M460.467957,481.000000 
	C460.000549,472.847687 460.221130,464.687073 459.914551,456.546326 
	C459.745331,452.053009 461.418915,450.557861 465.706116,450.950470 
	C468.676758,451.222504 471.714478,450.809662 474.673065,451.141388 
	C475.795471,451.267242 476.780090,452.621826 477.827515,453.416443 
	C476.837067,454.264709 475.954224,455.333557 474.819946,455.886932 
	C474.008545,456.282867 472.853363,455.918762 471.863373,456.014893 
	C469.434387,456.250702 466.157623,454.983917 466.030792,459.359833 
	C465.905640,463.677734 469.020264,462.877502 471.580017,462.997803 
	C472.576294,463.044678 473.694885,462.799652 474.537262,463.178253 
	C475.433624,463.581116 476.796967,464.758850 476.665070,465.254639 
	C476.397369,466.260742 475.407043,467.475861 474.444122,467.799072 
	C473.088623,468.254059 471.481842,468.076172 469.992462,467.992157 
	C466.907776,467.818176 465.939606,469.345886 465.975037,472.238708 
	C466.009705,475.069916 467.372864,475.727020 469.954803,476.098389 
	C472.938568,476.527557 478.058624,473.482697 477.978821,480.580627 
	C472.311951,481.000000 466.623932,481.000000 460.467957,481.000000 
z"/>
<path fill="#231F20" opacity="1.000000" stroke="none" 
	d="
M383.467957,481.000000 
	C383.001251,472.682312 383.163361,464.360229 382.934235,456.048889 
	C382.823853,452.043671 384.375183,450.681671 388.202332,450.958038 
	C391.347229,451.185150 394.541260,450.819031 397.669647,451.141541 
	C398.788116,451.256836 399.777924,452.619720 400.826447,453.413147 
	C399.837646,454.262482 398.968506,455.537292 397.830811,455.857300 
	C396.284790,456.292114 394.367218,455.569489 392.916321,456.133606 
	C391.433319,456.710205 389.565765,458.040955 389.205048,459.397491 
	C388.457001,462.210541 390.515869,463.086426 393.078156,463.004578 
	C394.571075,462.956879 396.137360,462.815826 397.539886,463.197327 
	C398.422852,463.437500 399.792145,464.759338 399.660553,465.256409 
	C399.394470,466.261688 398.403015,467.476349 397.440460,467.799286 
	C396.085022,468.253967 394.478546,468.076172 392.989349,467.992157 
	C389.902008,467.818024 388.941223,469.352020 388.976227,472.241486 
	C389.010498,475.074188 390.368530,475.751770 392.959625,476.091705 
	C395.976593,476.487457 401.016754,473.586975 400.997070,480.580078 
	C395.311951,481.000000 389.623932,481.000000 383.467957,481.000000 
z"/>
<path fill="#231F20" opacity="1.000000" stroke="none" 
	d="
M214.467957,481.000000 
	C214.006012,472.683838 214.171631,464.363373 213.948883,456.053345 
	C213.841736,452.055786 215.383804,450.673706 219.215393,450.958679 
	C222.193039,451.180115 225.227722,450.773987 228.180695,451.123322 
	C229.469147,451.275757 230.616653,452.619659 231.828186,453.422485 
	C230.669815,454.275635 229.618774,455.427185 228.321381,455.893829 
	C227.140457,456.318634 225.691559,456.025604 224.361557,456.002747 
	C222.006546,455.962280 220.071991,456.235138 220.006744,459.361816 
	C219.935501,462.777008 222.022491,463.064514 224.583374,463.007050 
	C225.911011,462.977234 227.325409,462.805908 228.542542,463.194092 
	C229.433273,463.478241 230.794006,464.764343 230.661407,465.261169 
	C230.393219,466.266022 229.399780,467.477661 228.436264,467.800293 
	C227.080582,468.254242 225.474686,468.076630 223.985733,467.992645 
	C220.896072,467.818451 219.941879,469.358398 219.976532,472.244415 
	C220.010574,475.078400 221.373230,475.751709 223.961960,476.091309 
	C226.978790,476.487061 232.017731,473.588409 231.997314,480.580078 
	C226.311966,481.000000 220.623917,481.000000 214.467957,481.000000 
z"/>
<path fill="#231F20" opacity="1.000000" stroke="none" 
	d="
M489.471191,481.000000 
	C488.184052,479.792572 487.368134,478.585114 486.396118,477.146698 
	C487.381256,474.305573 488.807739,472.822174 492.127045,474.922638 
	C493.299133,475.664368 495.010040,475.990570 496.392792,475.824127 
	C497.480652,475.693176 498.950012,474.707458 499.316437,473.745789 
	C499.678833,472.794647 499.256226,470.978119 498.497894,470.281799 
	C496.808990,468.730804 494.735565,467.575714 492.747528,466.377747 
	C487.435638,463.177002 485.457977,458.747101 487.496033,454.428223 
	C489.386047,450.423157 494.840424,448.909424 500.244934,450.963013 
	C501.631561,451.489899 502.931427,452.244995 504.635590,452.947601 
	C505.000000,453.444458 505.000000,453.888885 504.647217,454.714172 
	C502.041534,455.218628 499.764893,455.184418 497.543610,455.518280 
	C495.917419,455.762695 494.363953,456.490723 492.778076,457.003235 
	C493.477234,458.301666 493.857361,460.050812 494.935455,460.813751 
	C498.143127,463.083801 501.625183,464.966156 505.000000,467.000000 
	C505.000000,471.596680 505.000000,476.193359 505.000000,481.000000 
	C499.982086,481.000000 494.962250,481.000000 489.471191,481.000000 
z"/>
<path fill="#231F20" opacity="1.000000" stroke="none" 
	d="
M99.467606,481.000000 
	C99.001694,472.505310 98.985420,464.010559 99.016205,455.515961 
	C99.025276,453.013000 98.806473,449.868958 102.479149,450.371124 
	C103.520500,450.513489 104.757973,453.482758 104.884521,455.229553 
	C105.220642,459.869019 105.282784,464.570709 104.923874,469.206635 
	C104.534470,474.236633 105.936516,476.854218 111.465828,476.036469 
	C114.460106,475.593689 116.371262,476.708252 115.979202,480.581116 
	C110.645073,481.000000 105.290138,481.000000 99.467606,481.000000 
z"/>
<path fill="#231F20" opacity="1.000000" stroke="none" 
	d="
M435.467590,481.000000 
	C435.001007,472.505219 434.984192,464.010345 435.014099,455.515656 
	C435.022919,453.012329 434.804260,449.868713 438.476990,450.371033 
	C439.518951,450.513519 440.757599,453.481445 440.884186,455.227692 
	C441.220490,459.867157 441.282043,464.568878 440.923737,469.204956 
	C440.535187,474.231995 441.931152,476.855347 447.463562,476.036774 
	C450.457581,475.593811 452.368835,476.708984 451.978760,480.581238 
	C446.645081,481.000000 441.290131,481.000000 435.467590,481.000000 
z"/>
<path fill="#231F20" opacity="1.000000" stroke="none" 
	d="
M411.466858,481.000000 
	C411.000793,472.338013 410.863098,463.671844 411.124054,455.017700 
	C411.173767,453.368317 412.629944,450.523865 413.727722,450.375092 
	C417.048767,449.925171 416.971436,452.858124 416.986572,455.221405 
	C417.018646,460.218506 417.214020,465.227905 416.935883,470.209534 
	C416.702087,474.396729 417.871826,476.617188 422.464600,476.024872 
	C425.485687,475.635284 427.346375,476.745575 426.997070,480.581085 
	C421.977905,481.000000 416.955811,481.000000 411.466858,481.000000 
z"/>
<path fill="#231F20" opacity="1.000000" stroke="none" 
	d="
M75.466858,481.000000 
	C75.000938,472.338287 74.863457,463.672363 75.124428,455.018494 
	C75.174171,453.368927 76.630135,450.523499 77.726921,450.375488 
	C81.048264,449.927185 80.968544,452.861511 80.984009,455.223633 
	C81.016724,460.220551 81.211899,465.229828 80.933617,470.211304 
	C80.699554,474.401184 81.876129,476.616058 86.465500,476.024658 
	C89.486847,475.635345 91.346863,476.745911 90.997238,480.581085 
	C85.977905,481.000000 80.955818,481.000000 75.466858,481.000000 
z"/>
<path fill="#231F20" opacity="1.000000" stroke="none" 
	d="
M198.416656,481.000000 
	C198.001328,472.225708 197.883224,463.448212 198.117462,454.680145 
	C198.158173,453.156708 199.687241,451.673035 200.528839,450.170990 
	C201.351334,451.691711 202.842224,453.193848 202.885117,454.736206 
	C203.119766,463.172913 202.998840,471.619507 203.000046,480.531342 
	C201.611115,481.000000 200.222214,481.000000 198.416656,481.000000 
z"/>
<path fill="#000000" opacity="1.000000" stroke="none" 
	d="
M167.463181,481.000000 
	C167.000000,474.873474 167.000000,468.746979 167.000000,462.620453 
	C167.432373,462.384888 167.864731,462.149292 168.297104,461.913696 
	C172.172104,468.039886 176.047089,474.166077 179.961044,480.646118 
	C175.975449,481.000000 171.950912,481.000000 167.463181,481.000000 
z"/>
<path fill="#000000" opacity="1.000000" stroke="none" 
	d="
M1.000000,458.468750 
	C1.970022,459.397125 3.352197,460.665222 3.837023,462.214203 
	C5.699381,468.164337 7.274104,474.204498 8.978060,480.605530 
	C6.371582,481.000000 3.743164,481.000000 1.000000,481.000000 
	C1.000000,473.646118 1.000000,466.291779 1.000000,458.468750 
z"/>
<path fill="#000000" opacity="1.000000" stroke="none" 
	d="
M47.464653,481.000000 
	C47.644733,473.060394 49.921474,470.267426 55.373085,472.371643 
	C57.854008,473.329193 59.081631,477.533813 60.938866,480.632812 
	C56.643101,481.000000 52.286201,481.000000 47.464653,481.000000 
z"/>
<path fill="#000000" opacity="1.000000" stroke="none" 
	d="
M505.000000,466.539368 
	C501.625183,464.966156 498.143127,463.083801 494.935455,460.813751 
	C493.857361,460.050812 493.477234,458.301666 492.778076,457.003235 
	C494.363953,456.490723 495.917419,455.762695 497.543610,455.518280 
	C499.764893,455.184418 502.041534,455.218628 504.647217,455.047516 
	C505.000000,458.692902 505.000000,462.385834 505.000000,466.539368 
z"/>
<path fill="#000000" opacity="1.000000" stroke="none" 
	d="
M297.444153,481.000000 
	C297.000000,477.430420 297.000000,473.860840 297.000000,470.291260 
	C297.406372,470.143097 297.812744,469.994934 298.219147,469.846771 
	C300.436920,473.335327 302.654694,476.823914 304.936249,480.656250 
	C302.629425,481.000000 300.258881,481.000000 297.444153,481.000000 
z"/>
<path fill="#000000" opacity="1.000000" stroke="none" 
	d="
M359.449951,481.000000 
	C360.132446,477.898712 361.264893,474.797424 362.397339,471.696136 
	C362.874115,471.699066 363.350891,471.701996 363.827698,471.704956 
	C365.178986,474.567291 366.530273,477.429626 367.940796,480.645996 
	C365.299988,481.000000 362.599976,481.000000 359.449951,481.000000 
z"/>
<path fill="#000000" opacity="1.000000" stroke="none" 
	d="
M15.437500,481.000000 
	C16.045265,477.413055 17.090530,473.826141 18.135798,470.239197 
	C18.459671,470.207611 18.783545,470.175995 19.107418,470.144409 
	C20.057589,473.503784 21.007759,476.863159 21.978966,480.611267 
	C19.958334,481.000000 17.916666,481.000000 15.437500,481.000000 
z"/>
<path fill="#1B4690" opacity="1.000000" stroke="none" 
	d="
M299.305359,133.027618 
	C310.080841,133.403717 320.332214,132.931046 330.227600,129.814484 
	C347.903717,124.247406 357.733124,111.660568 360.876831,93.812752 
	C362.188293,86.367058 362.552460,78.726440 362.938477,71.153603 
	C363.334991,63.374554 368.520599,60.061882 375.085327,64.124229 
	C384.510742,69.956810 389.533203,78.769089 390.991577,89.649681 
	C393.391113,107.551758 388.487854,123.878754 379.846161,139.274475 
	C377.412872,143.609543 379.164612,144.885834 383.092651,146.171417 
	C403.249298,152.768295 419.125214,165.193695 431.024475,182.613708 
	C438.437317,193.465805 442.803772,205.757706 442.608856,218.811722 
	C442.265106,241.832184 434.827484,262.244385 418.428406,279.253387 
	C402.009949,296.282471 382.106842,306.666077 359.403687,311.619263 
	C338.274811,316.228943 317.392914,314.771942 297.224426,305.365479 
	C297.224426,288.248047 297.224426,270.955292 297.224426,253.021317 
	C301.600098,255.434937 305.442200,258.239136 309.735840,259.806702 
	C330.821106,267.504730 350.249969,264.158997 367.559265,249.875946 
	C379.793488,239.780624 385.490692,226.463120 384.945557,210.694778 
	C384.338654,193.139069 375.839203,180.012283 361.229523,170.661804 
	C351.556000,164.470566 340.856628,161.598068 329.447449,160.953003 
	C320.043243,160.421295 310.655640,159.599396 301.253174,159.030304 
	C298.802856,158.882004 296.981934,158.491898 297.004639,155.484024 
	C297.054901,148.820129 296.962280,142.154297 297.107269,135.493149 
	C297.125244,134.667358 298.232086,133.865280 299.305359,133.027618 
z"/>
<path fill="#FAB20B" opacity="1.000000" stroke="none" 
	d="
M190.092285,263.017822 
	C176.636551,252.578323 171.229340,237.612106 166.100189,222.626038 
	C162.753967,212.849197 160.193146,202.799408 157.434204,192.829346 
	C156.917435,190.961914 156.569702,188.708694 157.145676,186.964218 
	C157.856186,184.812210 159.424057,181.579636 160.963409,181.373993 
	C163.478943,181.037964 167.346436,181.939850 168.763229,183.772873 
	C175.511551,192.503830 181.613998,201.733170 187.970352,210.768234 
	C190.456161,214.301590 193.005081,217.790558 195.525253,221.299759 
	C196.147690,221.269257 196.770126,221.238739 197.392563,221.208237 
	C198.261627,216.616364 199.525864,212.056152 199.897110,207.424362 
	C200.334946,201.961472 199.508438,196.383957 200.091141,190.948441 
	C201.935822,173.741150 203.351334,156.423462 206.489258,139.435974 
	C210.173111,119.492882 216.943741,100.398636 226.819702,82.505798 
	C241.949203,55.094807 263.257965,35.217075 294.250488,27.431585 
	C308.604950,23.825672 323.264862,22.331535 337.685425,27.128134 
	C342.212616,28.633980 346.411346,31.394390 350.439056,34.065224 
	C355.160889,37.196342 356.070282,42.408497 354.688202,47.259296 
	C353.219482,52.414040 348.872772,55.266628 343.409546,55.984402 
	C324.899780,58.416271 307.934052,64.683449 292.684845,75.664078 
	C278.953278,85.551895 268.799164,98.277367 260.912750,113.104515 
	C250.127991,133.380890 243.947464,155.023590 240.997192,177.685989 
	C239.312225,190.628952 237.711060,203.582977 235.983627,216.520203 
	C234.266678,229.379150 232.784821,242.302963 226.973557,254.191620 
	C223.084778,262.147278 217.040100,267.896423 208.168121,268.725098 
	C201.898865,269.310730 195.628723,267.262268 190.092285,263.017822 
z"/>
<path fill="#231F20" opacity="1.000000" stroke="none" 
	d="
M426.490417,378.241821 
	C445.877594,384.664978 448.862762,415.197357 432.919312,427.452393 
	C424.831146,433.669464 415.465576,434.809143 405.962097,431.314850 
	C396.179199,427.717834 390.352509,420.737885 388.874481,410.006622 
	C387.624207,400.928955 389.084015,392.687195 394.919250,385.715240 
	C403.321106,375.676666 414.201782,374.383514 426.490417,378.241821 
M398.708832,408.624725 
	C400.691345,412.346375 401.843628,417.025940 404.817719,419.603516 
	C412.613739,426.360321 424.205048,424.372528 430.238098,416.108521 
	C435.518890,408.875061 433.444763,394.344635 426.401764,389.232483 
	C420.845673,385.199646 412.505157,384.504486 407.091248,388.062927 
	C400.019104,392.711273 397.235901,399.451416 398.708832,408.624725 
z"/>
<path fill="#231F20" opacity="1.000000" stroke="none" 
	d="
M98.999672,395.001221 
	C99.004028,390.009583 98.799866,385.501801 99.137329,381.034943 
	C99.241203,379.659973 100.782516,377.288544 101.736786,377.252411 
	C112.191750,376.856567 122.761650,376.211578 131.918869,382.942810 
	C141.555801,390.026611 143.592209,400.004364 141.797913,410.859314 
	C140.250290,420.221863 134.355743,427.299194 125.320831,429.752686 
	C117.955437,431.752808 109.932755,431.390106 102.190826,431.918152 
	C99.029678,432.133759 99.003868,429.705902 99.004135,427.444183 
	C99.005371,416.796387 99.001640,406.148621 98.999672,395.001221 
M132.796158,407.897949 
	C134.590073,394.096619 123.689392,386.205139 112.804909,385.968994 
	C109.553383,385.898438 107.893463,386.779053 107.954475,390.414703 
	C108.113251,399.875092 108.060242,409.340302 107.980003,418.802673 
	C107.955444,421.698761 109.001381,422.892517 112.027397,423.050201 
	C122.118057,423.576019 129.157211,418.778992 132.796158,407.897949 
z"/>
<path fill="#231F20" opacity="1.000000" stroke="none" 
	d="
M241.184296,389.813782 
	C242.781158,398.427063 239.574326,403.439423 229.696854,407.962524 
	C234.622406,415.577484 239.530228,423.165039 244.510178,430.864075 
	C237.139160,433.327576 234.706482,432.515076 230.859009,426.760834 
	C226.930725,420.885742 222.966125,415.034943 217.996368,409.485077 
	C217.996368,415.393494 217.891068,421.304504 218.037918,427.209259 
	C218.119156,430.475555 217.185898,432.088623 213.553818,432.078247 
	C210.035019,432.068207 208.932480,430.694489 208.956665,427.319000 
	C209.066269,412.013458 209.055847,396.706421 208.967712,381.400635 
	C208.949371,378.213745 210.111496,376.765076 213.349060,376.996979 
	C218.966324,377.399353 224.635406,377.392120 230.197403,378.168304 
	C236.399658,379.033813 239.948517,383.065399 241.184296,389.813782 
M218.513748,387.148712 
	C218.342499,388.942291 218.040405,390.734589 218.022736,392.529663 
	C217.947433,400.183319 218.597733,400.748810 226.156631,399.969269 
	C229.792679,399.594269 233.117157,396.141846 232.694489,392.558136 
	C232.252274,388.808777 230.334869,385.976654 225.993500,386.045227 
	C223.703247,386.081390 221.416809,386.359375 218.513748,387.148712 
z"/>
<path fill="#231F20" opacity="1.000000" stroke="none" 
	d="
M189.233368,431.531860 
	C180.192215,431.805145 171.549408,431.862976 162.908005,432.005188 
	C160.197128,432.049805 158.980515,430.937378 158.988754,428.169861 
	C159.035782,412.368286 159.033875,396.566437 158.995483,380.764862 
	C158.988632,377.948608 160.356750,376.973877 163.005707,376.994110 
	C170.822922,377.053802 178.641861,377.091644 186.458115,376.987183 
	C190.443527,376.933899 190.953232,379.246399 191.056427,382.479034 
	C191.170135,386.040314 189.631882,387.167755 186.285507,387.037964 
	C181.967499,386.870453 177.633850,387.119476 173.314377,386.971741 
	C170.047668,386.859985 168.762756,388.274536 168.987381,391.435638 
	C169.104996,393.090942 168.547592,394.965515 169.156204,396.367126 
	C169.781799,397.807892 171.342438,399.632996 172.693176,399.815582 
	C176.287857,400.301514 179.992233,400.080231 183.648315,399.975769 
	C186.808380,399.885498 189.091537,400.190186 189.091904,404.384827 
	C189.092239,408.345398 187.284058,409.199097 183.879684,409.035583 
	C180.394882,408.868195 176.890610,409.120392 173.403885,408.974091 
	C170.216888,408.840363 169.051620,410.117554 168.943558,413.340393 
	C168.619522,423.003754 168.504105,422.999878 178.067307,423.000671 
	C180.395996,423.000885 182.724777,422.987671 185.053360,423.003998 
	C191.436066,423.048798 192.618271,425.209015 189.233368,431.531860 
z"/>
<path fill="#231F20" opacity="1.000000" stroke="none" 
	d="
M48.999344,414.998108 
	C48.999790,403.837585 49.129665,393.174316 48.933628,382.517059 
	C48.860600,378.547241 49.937031,376.758240 54.245007,376.927338 
	C61.396824,377.208038 68.573082,377.178833 75.728386,376.948730 
	C80.559189,376.793396 80.436073,380.295654 80.869125,383.283875 
	C81.426010,387.126678 78.590446,387.008514 75.993469,387.000732 
	C72.328835,386.989716 68.636078,387.286377 65.006256,386.931213 
	C60.007877,386.442108 58.334743,388.611755 58.995953,393.254089 
	C59.019203,393.417328 59.019268,393.589722 58.995956,393.752960 
	C58.331753,398.403778 60.026215,400.605011 65.012848,400.059509 
	C67.975258,399.735413 71.008415,400.123871 73.999901,399.982727 
	C77.559845,399.814728 78.029007,401.869324 78.036530,404.747375 
	C78.044037,407.624084 77.099701,409.126038 74.005470,409.015747 
	C70.678391,408.897217 67.334587,409.152679 64.014389,408.961578 
	C60.469425,408.757538 58.954220,409.924286 58.922054,413.742706 
	C58.844059,423.000641 58.677525,422.998810 67.994217,423.000183 
	C70.826004,423.000610 73.657913,422.988708 76.489548,423.010651 
	C78.703575,423.027802 81.293854,422.919006 80.792542,426.206451 
	C80.394630,428.815796 80.517654,432.092010 76.234047,432.021393 
	C68.407173,431.892303 60.576347,431.941833 52.747860,432.003967 
	C49.911198,432.026489 48.942120,430.641663 48.990944,427.990631 
	C49.067612,423.827728 49.003716,419.662201 48.999344,414.998108 
z"/>
<path fill="#231F20" opacity="1.000000" stroke="none" 
	d="
M262.109863,418.127808 
	C266.518860,405.881989 270.849792,394.022797 275.095093,382.133057 
	C276.252563,378.891357 277.760315,376.841125 281.808716,376.870972 
	C285.778992,376.900238 286.234192,379.403412 287.201477,382.094513 
	C292.480743,396.782440 297.851807,411.437408 303.165344,426.113098 
	C303.721558,427.649384 304.107422,429.247345 304.562012,430.781891 
	C297.993286,433.388672 295.384979,432.473938 293.535889,427.122345 
	C289.489868,415.412415 289.481140,415.285004 276.884460,416.148834 
	C275.081451,416.272461 273.054535,418.024353 271.780853,419.561096 
	C270.572144,421.019440 270.146118,423.160339 269.497162,425.042908 
	C266.863770,432.682068 266.880951,432.687988 257.514160,431.460968 
	C259.043884,427.041687 260.521729,422.772308 262.109863,418.127808 
M283.782196,397.760223 
	C283.052155,395.606873 282.322083,393.453491 281.161591,390.030457 
	C279.176575,396.042389 277.562592,400.930634 275.715942,406.523499 
	C279.748260,406.523499 282.849030,406.523499 286.488617,406.523499 
	C285.547882,403.496704 284.771393,400.998444 283.782196,397.760223 
z"/>
<path fill="#231F20" opacity="1.000000" stroke="none" 
	d="
M332.999878,404.001160 
	C332.998840,411.986237 332.828064,419.477051 333.065308,426.954926 
	C333.192322,430.957794 331.628479,432.112854 327.805206,432.096375 
	C324.061554,432.080200 322.897369,430.677765 322.945007,427.069489 
	C323.096558,415.593842 323.006836,404.114868 322.995514,392.637207 
	C322.989075,386.122559 322.975983,386.122559 316.402008,385.998871 
	C311.191071,385.900848 309.532990,383.617157 311.918640,379.362061 
	C312.557159,378.223175 314.420624,377.150208 315.747101,377.118805 
	C324.225800,376.917999 332.715363,376.859894 341.193695,377.067871 
	C347.519318,377.223083 343.941803,382.440674 345.864166,386.001984 
	C342.765167,386.001984 340.476349,386.161194 338.218079,385.966278 
	C334.413452,385.637970 332.692688,386.998383 332.944763,391.029388 
	C333.203796,395.171722 333.000732,399.342957 332.999878,404.001160 
z"/>
<path fill="#231F20" opacity="1.000000" stroke="none" 
	d="
M361.000000,417.991089 
	C361.000885,405.661194 361.133698,393.826843 360.930054,381.998260 
	C360.859985,377.929138 362.491455,376.911072 366.256500,376.904633 
	C370.087463,376.898041 371.080017,378.472168 371.050293,382.010071 
	C370.924286,397.007446 370.886993,412.007812 371.069122,427.004028 
	C371.118530,431.072998 369.503784,432.088562 365.740967,432.095612 
	C361.907745,432.102753 360.731598,430.528229 360.964905,426.985565 
	C361.150696,424.164825 361.000854,421.321960 361.000000,417.991089 
z"/>
<path fill="#231F20" opacity="1.000000" stroke="none" 
	d="
M168.947845,368.743958 
	C171.818970,360.138397 172.273636,359.881409 181.038864,361.597778 
	C179.494705,368.144043 175.582184,372.485077 171.401230,371.859924 
	C170.436630,371.715698 169.697128,370.065826 168.947845,368.743958 
z"/>
<path fill="#231F20" opacity="1.000000" stroke="none" 
	d="
M61.127983,371.966736 
	C60.054562,370.828430 58.543030,369.393494 58.828430,368.632172 
	C59.897552,365.780334 59.257030,361.489502 63.872868,361.075195 
	C66.147812,360.870972 68.456245,361.039764 70.836014,361.039764 
	C69.533081,367.248901 66.053398,371.209991 61.127983,371.966736 
z"/>
<path fill="#231F20" opacity="1.000000" stroke="none" 
	d="
M251.834244,469.174500 
	C251.009613,470.700470 250.184341,472.687408 249.214401,472.760773 
	C246.703583,472.950592 244.128983,472.296906 241.579834,471.980011 
	C241.935776,470.419800 242.361206,467.494629 242.636993,467.508667 
	C245.693924,467.664307 248.727661,468.275543 251.834244,469.174500 
z"/>
<path fill="#000000" opacity="1.000000" stroke="none" 
	d="
M128.139069,468.378815 
	C127.892227,459.404327 130.077271,456.254761 136.373856,456.015503 
	C141.646515,455.815125 144.984207,458.207947 145.889252,462.837097 
	C147.011673,468.578094 144.402176,473.932465 139.690399,475.556427 
	C135.431992,477.024078 131.329758,475.016846 128.732651,470.174713 
	C128.499985,469.740936 128.374817,469.249481 128.139069,468.378815 
z"/>
<path fill="#000000" opacity="1.000000" stroke="none" 
	d="
M268.115479,473.634277 
	C268.837341,471.518311 269.548615,468.429626 270.407654,468.387970 
	C272.303589,468.296051 274.457520,469.495728 276.086945,470.724426 
	C276.502716,471.037964 275.794098,474.073975 274.831573,474.731964 
	C272.715424,476.178558 270.047974,477.394135 268.115479,473.634277 
z"/>
<path fill="#000000" opacity="1.000000" stroke="none" 
	d="
M273.696655,462.001068 
	C271.670685,461.926605 269.972992,461.654694 268.275330,461.382751 
	C268.602631,459.733154 268.403900,457.316772 269.395966,456.636200 
	C270.528564,455.859131 272.721436,456.627533 274.453552,456.724335 
	C274.310699,458.417419 274.167847,460.110535 273.696655,462.001068 
z"/>
<path fill="#000000" opacity="1.000000" stroke="none" 
	d="
M302.841095,456.705475 
	C303.175537,458.594879 303.862244,460.897430 303.035980,461.774200 
	C302.146667,462.717926 299.578979,462.903412 298.244659,462.304077 
	C297.407623,461.928131 296.793091,458.542603 297.299927,458.170441 
	C298.699066,457.143066 300.740051,456.989807 302.841095,456.705475 
z"/>
<path fill="#000000" opacity="1.000000" stroke="none" 
	d="
M54.960968,462.361572 
	C56.356766,466.321350 55.379826,467.639709 51.067131,466.137451 
	C51.862843,463.772919 52.599392,461.584229 53.555267,458.743744 
	C54.160351,460.256409 54.514767,461.142395 54.960968,462.361572 
z"/>
<path fill="#000000" opacity="1.000000" stroke="none" 
	d="
M398.579468,408.227966 
	C397.235901,399.451416 400.019104,392.711273 407.091248,388.062927 
	C412.505157,384.504486 420.845673,385.199646 426.401764,389.232483 
	C433.444763,394.344635 435.518890,408.875061 430.238098,416.108521 
	C424.205048,424.372528 412.613739,426.360321 404.817719,419.603516 
	C401.843628,417.025940 400.691345,412.346375 398.579468,408.227966 
z"/>
<path fill="#000000" opacity="1.000000" stroke="none" 
	d="
M132.690094,408.296143 
	C129.157211,418.778992 122.118057,423.576019 112.027397,423.050201 
	C109.001381,422.892517 107.955444,421.698761 107.980003,418.802673 
	C108.060242,409.340302 108.113251,399.875092 107.954475,390.414703 
	C107.893463,386.779053 109.553383,385.898438 112.804909,385.968994 
	C123.689392,386.205139 134.590073,394.096619 132.690094,408.296143 
z"/>
<path fill="#000000" opacity="1.000000" stroke="none" 
	d="
M218.821198,386.838440 
	C221.416809,386.359375 223.703247,386.081390 225.993500,386.045227 
	C230.334869,385.976654 232.252274,388.808777 232.694489,392.558136 
	C233.117157,396.141846 229.792679,399.594269 226.156631,399.969269 
	C218.597733,400.748810 217.947433,400.183319 218.022736,392.529663 
	C218.040405,390.734589 218.342499,388.942291 218.821198,386.838440 
z"/>
<path fill="#000000" opacity="1.000000" stroke="none" 
	d="
M283.888550,398.130219 
	C284.771393,400.998444 285.547882,403.496704 286.488617,406.523499 
	C282.849030,406.523499 279.748260,406.523499 275.715942,406.523499 
	C277.562592,400.930634 279.176575,396.042389 281.161591,390.030457 
	C282.322083,393.453491 283.052155,395.606873 283.888550,398.130219 
z"/>
</svg>